<svg id="wave" style="transform:rotate(0deg); transition: 0.3s" viewBox="0 0 1440 170" version="1.1"
    xmlns="http://www.w3.org/2000/svg">
    <defs>
        <linearGradient id="sw-gradient-0" x1="0" x2="0" y1="1" y2="0">
            <stop stop-color="rgba(9, 29, 66, 1)" offset="0%"></stop>
            <stop stop-color="rgba(24, 79, 180, 1)" offset="100%"></stop>
        </linearGradient>
    </defs>
    <path style="transform:translate(0, 0px); opacity:1" fill="url(#sw-gradient-0)" d="M0,136L40,127.5C80,119,160,102,240,99.2C320,96,400,108,480,110.5C560,113,640,108,720,93.5C800,79,880,57,960,51C1040,45,1120,57,1200,59.5C1280,62,1360,57,1440,65.2C1520,74,1600,96,1680,90.7C1760,85,1840,51,1920,34C2000,17,2080,17,2160,14.2C2240,11,2320,6,2400,25.5C2480,45,2560,91,2640,93.5C2720,96,2800,57,2880,39.7C2960,23,3040,28,3120,31.2C3200,34,3280,34,3360,51C3440,68,3520,102,3600,102C3680,102,3760,68,3840,51C3920,34,4000,34,4080,48.2C4160,62,4240,91,4320,85C4400,79,4480,40,4560,31.2C4640,23,4720,45,4800,51C4880,57,4960,45,5040,51C5120,57,5200,79,5280,90.7C5360,102,5440,102,5520,110.5C5600,119,5680,136,5720,144.5L5760,153L5760,170L5720,170C5680,170,5600,170,5520,170C5440,170,5360,170,5280,170C5200,170,5120,170,5040,170C4960,170,4880,170,4800,170C4720,170,4640,170,4560,170C4480,170,4400,170,4320,170C4240,170,4160,170,4080,170C4000,170,3920,170,3840,170C3760,170,3680,170,3600,170C3520,170,3440,170,3360,170C3280,170,3200,170,3120,170C3040,170,2960,170,2880,170C2800,170,2720,170,2640,170C2560,170,2480,170,2400,170C2320,170,2240,170,2160,170C2080,170,2000,170,1920,170C1840,170,1760,170,1680,170C1600,170,1520,170,1440,170C1360,170,1280,170,1200,170C1120,170,1040,170,960,170C880,170,800,170,720,170C640,170,560,170,480,170C400,170,320,170,240,170C160,170,80,170,40,170L0,170Z"></path>
</svg>